[img]http://img10.imageshack.us/img10/8397/scream4wl.jpg[/img]
[code]
Scream 4 2011 DVDRiP XViD AC3 - IMAGiNE

Ripper ...........: IMAGiNE                                        IMDB Rating.......:6.9/10                             
Video Codec.......: XVID                                         Release Date......:01/08/11
Audio Codec.......:AC3                                           Theatre Date......:15/04/11
Audio Bitrate.....:384                                              Runtime.......:1h 50mn
Subtitles.........:NIL                                                 Language..........:ENGLISH
Resolution......: 720 x 384                                      IMDb URL..........:http://www.imdb.com/title/tt1262416/


DETAILS:

Video
ID                               : 0
Format                           : MPEG-4 Visual
Format profile                   : Advanced Simple@L5
Format settings, BVOP            : 2
Format settings, QPel            : No
Format settings, GMC             : No warppoints
Format settings, Matrix          : Default (MPEG)
Muxing mode                      : Packed bitstream
Codec ID                         : XVID
Codec ID/Hint                    : XviD
Duration                         : 1h 50mn
Bit rate                         : 2 065 Kbps
Width                            : 720 pixels
Height                           : 384 pixels
Display aspect ratio             : 1.875
Frame rate                       : 23.976 fps
Color space                      : YUV
Chroma subsampling               : 4:2:0
Bit depth                        : 8 bits
Scan type                        : Progressive
Compression mode                 : Lossy
Bits/(Pixel*Frame)               : 0.312
Stream size                      : 1.60 GiB (84%)
Writing library                  : XviD 64

Audio
ID                               : 1
Format                           : AC-3
Format/Info                      : Audio Coding 3
Mode extension                   : CM (complete main)
Codec ID                         : 2000
Duration                         : 1h 50mn
Bit rate mode                    : Constant
Bit rate                         : 384 Kbps
Channel(s)                       : 6 channels
Channel positions                : Front: L C R, Side: L R, LFE
Sampling rate                    : 48.0 KHz
Bit depth                        : 16 bits
Compression mode                 : Lossy
Stream size                      : 304 MiB (16%)
Alignment                        : Aligned on interleaves
Interleave, duration             : 42 ms (1.00 video frame)

Plot:
Ten years have passed, and Sidney Prescott, who has put herself back together thanks in part to her writing, is visited by the Ghostface Killer.

SOURCES:
VIDEO: ............. R4 DVDR5
AUDIO: ............. R4 DVDR5

NOTES:

IMAGiNE bringing you another release..........
Scream 4 DVDRiP...........
Ok folks heres a decent dvdrip given the source 
First made a script to resize and sharpen.........
Ran smoother and noise filters over it,
and made some adjustments to the colors 
as they seemed off 
Audio was then remuxed to our encode 
Enjoy!
[/code]
Screens:
[img]http://img228.imageshack.us/img228/8171/82151543.png[/img]
[img]http://img143.imageshack.us/img143/4493/26483041.png[/img]
[img]http://img580.imageshack.us/img580/2497/40902569.png[/img]
[img]http://img20.imageshack.us/img20/6872/23529556.png[/img]